<?xml version="1.0" encoding="UTF-8" standalone="no"?>
<!-- Generator: Adobe Illustrator 25.4.1, SVG Export Plug-In . SVG Version: 6.00 Build 0)  -->

<svg
   version="1.1"
   id="Ebene_1"
   x="0px"
   y="0px"
   viewBox="0 0 336.39025 141.73301"
   xml:space="preserve"
   sodipodi:docname="dresden-concept-v1.svg"
   width="336.39026"
   height="141.733"
   inkscape:version="1.3 (0e150ed6c4, 2023-07-21)"
   xmlns:inkscape="http://www.inkscape.org/namespaces/inkscape"
   xmlns:sodipodi="http://sodipodi.sourceforge.net/DTD/sodipodi-0.dtd"
   xmlns="http://www.w3.org/2000/svg"
   xmlns:svg="http://www.w3.org/2000/svg"><defs
   id="defs54">&#10;	&#10;	&#10;	&#10;	&#10;</defs><sodipodi:namedview
   id="namedview54"
   pagecolor="#d2fcee"
   bordercolor="#666666"
   borderopacity="1.0"
   inkscape:showpageshadow="2"
   inkscape:pageopacity="0.0"
   inkscape:pagecheckerboard="0"
   inkscape:deskcolor="#d1d1d1"
   inkscape:zoom="2.3425771"
   inkscape:cx="219.41648"
   inkscape:cy="83.668539"
   inkscape:window-width="1920"
   inkscape:window-height="1006"
   inkscape:window-x="1920"
   inkscape:window-y="0"
   inkscape:window-maximized="1"
   inkscape:current-layer="Ebene_1" />&#10;<style
   type="text/css"
   id="style1">&#10;	.st0{fill:#192D64;}&#10;	.st1{fill:#0A9BA0;}&#10;	.st2{fill:#A0DCF0;}&#10;	.st3{fill:#649BBE;}&#10;	.st4{fill:#326491;}&#10;	.st5{fill:#37B48C;}&#10;	.st6{fill:#CDDC28;}&#10;	.st7{fill:#A0C850;}&#10;</style>&#10;<g
   id="g55"
   transform="matrix(1.5311703,0,0,1.5311703,-0.12249362,-3.619576)"><g
     id="g7"
     transform="translate(-10.268,-14.173)">&#10;		<path
   class="st0"
   d="m 15.935,81.558 c -2.818,0 -5.587,-1.731 -5.587,-6.428 0,-4.696 2.769,-6.403 5.587,-6.403 1.731,0 2.942,0.495 4.129,1.756 l -1.731,1.68 c -0.791,-0.865 -1.409,-1.186 -2.398,-1.186 -0.964,0 -1.78,0.395 -2.324,1.112 -0.544,0.692 -0.741,1.582 -0.741,3.041 0,1.459 0.198,2.374 0.741,3.066 0.544,0.716 1.359,1.113 2.324,1.113 0.989,0 1.607,-0.322 2.398,-1.187 l 1.731,1.656 c -1.187,1.26 -2.398,1.78 -4.129,1.78 z"
   id="path1" />&#10;		<path
   class="st0"
   d="m 33.525,80.074 c -0.816,0.841 -2.052,1.484 -3.757,1.484 -1.707,0 -2.918,-0.643 -3.733,-1.484 -1.187,-1.236 -1.483,-2.818 -1.483,-4.944 0,-2.101 0.296,-3.683 1.483,-4.919 0.816,-0.841 2.027,-1.484 3.733,-1.484 1.706,0 2.942,0.643 3.757,1.484 1.187,1.236 1.484,2.818 1.484,4.919 0,2.126 -0.297,3.708 -1.484,4.944 z m -1.904,-8.38 c -0.47,-0.47 -1.113,-0.716 -1.854,-0.716 -0.743,0 -1.361,0.247 -1.83,0.716 -0.767,0.767 -0.865,2.077 -0.865,3.436 0,1.361 0.098,2.67 0.865,3.436 0.47,0.47 1.088,0.743 1.83,0.743 0.741,0 1.385,-0.273 1.854,-0.743 0.767,-0.767 0.865,-2.076 0.865,-3.436 0,-1.359 -0.098,-2.67 -0.865,-3.436 z"
   id="path2" />&#10;		<path
   class="st0"
   d="m 48.377,81.41 v -7.639 c 0,-1.953 -1.113,-2.793 -2.521,-2.793 -1.41,0 -2.597,0.865 -2.597,2.793 V 81.41 H 40.738 V 68.876 h 2.472 v 1.261 c 0.865,-0.939 2.077,-1.41 3.337,-1.41 1.286,0 2.349,0.42 3.091,1.138 0.963,0.939 1.26,2.126 1.26,3.535 v 8.01 z"
   id="path3" />&#10;		<path
   class="st0"
   d="m 62.018,81.558 c -2.818,0 -5.587,-1.731 -5.587,-6.428 0,-4.696 2.769,-6.403 5.587,-6.403 1.731,0 2.942,0.495 4.129,1.756 l -1.731,1.68 c -0.791,-0.865 -1.409,-1.186 -2.398,-1.186 -0.964,0 -1.78,0.395 -2.324,1.112 -0.544,0.692 -0.741,1.582 -0.741,3.041 0,1.459 0.198,2.374 0.741,3.066 0.544,0.716 1.359,1.113 2.324,1.113 0.989,0 1.607,-0.322 2.398,-1.187 l 1.731,1.656 c -1.187,1.26 -2.398,1.78 -4.129,1.78 z"
   id="path4" />&#10;		<path
   class="st0"
   d="m 73.057,75.871 c 0,2.151 1.137,3.51 3.189,3.51 1.409,0 2.15,-0.395 3.04,-1.285 l 1.607,1.508 c -1.285,1.286 -2.497,1.953 -4.697,1.953 -3.139,0 -5.636,-1.656 -5.636,-6.428 0,-4.054 2.102,-6.403 5.315,-6.403 3.362,0 5.315,2.472 5.315,6.033 v 1.112 z m 5.291,-3.46 c -0.395,-0.94 -1.285,-1.582 -2.472,-1.582 -1.187,0 -2.101,0.642 -2.497,1.582 -0.247,0.569 -0.296,0.939 -0.321,1.706 h 5.636 c -0.025,-0.767 -0.1,-1.137 -0.346,-1.706 z"
   id="path5" />&#10;		<path
   class="st0"
   d="m 95.663,80.445 c -0.692,0.692 -1.78,1.113 -3.041,1.113 -1.334,0 -2.373,-0.346 -3.288,-1.434 v 6.353 H 86.813 V 68.876 h 2.472 v 1.335 c 0.939,-1.138 1.953,-1.484 3.313,-1.484 1.26,0 2.373,0.42 3.065,1.113 1.261,1.261 1.41,3.387 1.41,5.29 0,1.904 -0.149,4.054 -1.41,5.315 z m -3.708,-9.468 c -2.274,0 -2.621,1.928 -2.621,4.153 0,2.225 0.346,4.179 2.621,4.179 2.275,0 2.595,-1.953 2.595,-4.179 0.001,-2.224 -0.32,-4.153 -2.595,-4.153 z"
   id="path6" />&#10;		<path
   class="st0"
   d="m 106.618,81.41 c -2.349,0 -3.436,-1.682 -3.436,-3.485 v -6.898 h -1.435 v -1.928 h 1.435 v -3.807 h 2.521 v 3.807 h 2.423 v 1.928 h -2.423 V 77.8 c 0,0.915 0.444,1.459 1.385,1.459 h 1.038 v 2.151 z"
   id="path7" />&#10;	</g><g
     id="g15"
     transform="translate(-10.268,-14.173)">&#10;		<g
   id="g14">&#10;			<path
   class="st0"
   d="m 21.333,55.256 c -1.113,1.113 -2.72,1.656 -4.549,1.656 h -6.18 V 39.311 h 6.18 c 1.829,0 3.436,0.544 4.549,1.656 1.903,1.903 1.78,4.475 1.78,7.021 0,2.547 0.124,5.365 -1.78,7.268 z m -1.83,-12.36 C 18.762,42.08 17.772,41.709 16.512,41.709 h -3.239 v 12.806 h 3.239 c 1.26,0 2.249,-0.371 2.991,-1.187 0.915,-1.013 0.94,-2.917 0.94,-5.339 10e-4,-2.424 -0.025,-4.08 -0.94,-5.093 z"
   id="path8" />&#10;			<path
   class="st0"
   d="m 39.031,56.913 -3.708,-7.416 h -3.337 v 7.416 h -2.67 V 39.311 h 6.822 c 3.338,0 5.464,2.151 5.464,5.142 0,2.521 -1.533,4.129 -3.51,4.672 l 4.054,7.788 z m -3.09,-15.204 h -3.955 v 5.513 h 3.955 c 1.78,0 2.992,-1.013 2.992,-2.744 0,-1.731 -1.212,-2.769 -2.992,-2.769 z"
   id="path9" />&#10;			<path
   class="st0"
   d="M 47.817,56.913 V 39.311 h 11.248 v 2.398 h -8.578 v 5.142 h 7.317 v 2.374 h -7.317 v 5.29 h 8.578 v 2.398 H 47.817 Z"
   id="path10" />&#10;			<path
   class="st0"
   d="m 70.331,57.061 c -2.646,0 -4.549,-0.618 -6.23,-2.324 l 1.78,-1.756 c 1.286,1.285 2.695,1.682 4.5,1.682 2.3,0 3.634,-0.989 3.634,-2.695 0,-0.767 -0.223,-1.41 -0.692,-1.83 -0.444,-0.419 -0.89,-0.593 -1.928,-0.741 l -2.077,-0.296 c -1.434,-0.199 -2.57,-0.692 -3.337,-1.41 -0.866,-0.816 -1.285,-1.928 -1.285,-3.362 0,-3.066 2.224,-5.167 5.883,-5.167 2.324,0 3.956,0.593 5.464,2.003 l -1.707,1.68 c -1.088,-1.037 -2.348,-1.359 -3.832,-1.359 -2.077,0 -3.214,1.187 -3.214,2.744 0,0.643 0.198,1.212 0.667,1.632 0.446,0.395 1.162,0.692 1.977,0.816 l 2.003,0.296 c 1.632,0.248 2.546,0.643 3.289,1.31 0.963,0.841 1.434,2.102 1.434,3.61 0,3.239 -2.646,5.167 -6.329,5.167 z"
   id="path11" />&#10;			<path
   class="st0"
   d="m 93.155,55.256 c -1.113,1.113 -2.72,1.656 -4.549,1.656 h -6.18 V 39.311 h 6.18 c 1.829,0 3.436,0.544 4.549,1.656 1.903,1.903 1.78,4.475 1.78,7.021 0,2.547 0.123,5.365 -1.78,7.268 z m -1.83,-12.36 C 90.584,42.08 89.594,41.709 88.334,41.709 h -3.239 v 12.806 h 3.239 c 1.26,0 2.249,-0.371 2.991,-1.187 0.915,-1.013 0.94,-2.917 0.94,-5.339 0,-2.424 -0.025,-4.08 -0.94,-5.093 z"
   id="path12" />&#10;			<path
   class="st0"
   d="M 101.138,56.913 V 39.311 h 11.248 v 2.398 h -8.578 v 5.142 h 7.317 v 2.374 h -7.317 v 5.29 h 8.578 v 2.398 z"
   id="path13" />&#10;			<path
   class="st0"
   d="m 128.991,56.913 -8.134,-12.386 v 12.386 h -2.67 V 39.311 h 2.447 l 8.134,12.36 v -12.36 h 2.67 v 17.602 z"
   id="path14" />&#10;		</g>&#10;	</g></g><g
   id="g47"
   transform="translate(34.847254,-14.173)">&#10;		<polygon
   class="st1"
   points="276.403,103.98 224.477,155.906 276.403,139.533 "
   id="polygon40" />&#10;		<polygon
   class="st2"
   points="276.403,66.099 276.403,139.533 301.543,91.239 "
   id="polygon41" />&#10;		<polygon
   class="st3"
   points="249.617,39.313 301.543,91.239 285.171,39.313 "
   id="polygon42" />&#10;		<polygon
   class="st4"
   points="211.737,39.313 285.171,39.313 236.877,14.173 "
   id="polygon43" />&#10;		<polygon
   class="st0"
   points="184.951,66.099 236.877,14.173 184.951,30.545 "
   id="polygon44" />&#10;		<polygon
   class="st5"
   points="249.617,130.765 176.183,130.765 224.477,155.906 "
   id="polygon45" />&#10;		<polygon
   class="st6"
   points="184.951,103.98 184.951,30.545 159.811,78.839 "
   id="polygon46" />&#10;		<polygon
   class="st7"
   points="211.737,130.765 159.811,78.839 176.183,130.765 "
   id="polygon47" />&#10;	</g>&#10;<g
   id="g49"
   transform="translate(34.847254,-14.173)">&#10;</g>&#10;<g
   id="g50"
   transform="translate(34.847254,-14.173)">&#10;</g>&#10;<g
   id="g51"
   transform="translate(34.847254,-14.173)">&#10;</g>&#10;<g
   id="g52"
   transform="translate(34.847254,-14.173)">&#10;</g>&#10;<g
   id="g53"
   transform="translate(34.847254,-14.173)">&#10;</g>&#10;<g
   id="g54"
   transform="translate(34.847254,-14.173)">&#10;</g>&#10;</svg>
