<?xml version="1.0" encoding="UTF-8" standalone="no"?>
<!-- Created with Inkscape (http://www.inkscape.org/) -->

<svg
   version="1.1"
   id="svg1"
   width="663.04004"
   height="270.40097"
   viewBox="0 0 663.04004 270.40097"
   sodipodi:docname="logo_HZDR.svg"
   inkscape:version="1.3 (0e150ed6c4, 2023-07-21)"
   xmlns:inkscape="http://www.inkscape.org/namespaces/inkscape"
   xmlns:sodipodi="http://sodipodi.sourceforge.net/DTD/sodipodi-0.dtd"
   xmlns="http://www.w3.org/2000/svg"
   xmlns:svg="http://www.w3.org/2000/svg">
  <defs
     id="defs1" />
  <sodipodi:namedview
     id="namedview1"
     pagecolor="#ffffff"
     bordercolor="#666666"
     borderopacity="1.0"
     inkscape:showpageshadow="2"
     inkscape:pageopacity="0.0"
     inkscape:pagecheckerboard="0"
     inkscape:deskcolor="#d1d1d1"
     inkscape:zoom="0.66531842"
     inkscape:cx="402.06312"
     inkscape:cy="120.24318"
     inkscape:window-width="1920"
     inkscape:window-height="1006"
     inkscape:window-x="1920"
     inkscape:window-y="0"
     inkscape:window-maximized="1"
     inkscape:current-layer="svg1" />
  <path
     style="display:inline;fill:#cf6800"
     d="M 16.32,28.16 H 0 V 14.08 0 h 16.32 16.32 v 14.08 14.08 z"
     id="path5" />
  <path
     style="display:inline;fill:#005aa0"
     d="m 125.76,270.2835 -6.56,0.0984 -1.76,-0.408 -1.76,-0.40801 -0.96,-0.51435 -0.96,-0.51435 -0.86757,-0.91311 -0.86757,-0.9131 -0.47938,-1.35871 -0.47938,-1.35871 -0.21719,-2.39675 -0.21718,-2.39676 h 3.24413 3.24414 l 0.0181,1.2 0.0181,1.2 0.38194,1.09003 0.38194,1.09003 0.89014,0.66002 0.89014,0.66002 4.86986,0.01 4.86986,0.01 1.05509,-0.44507 1.05509,-0.44508 0.46491,-0.89903 0.46491,-0.89904 v -2.55804 -2.55805 l -0.7283,-0.8467 -0.72829,-0.84669 -2.71171,-0.27795 -2.7117,-0.27795 -4.16,-0.3302 -4.16,-0.3302 -1.22447,-0.3842 -1.22448,-0.3842 -1.41414,-1.24478 -1.41413,-1.24477 -0.51476,-1.77071 -0.51476,-1.77071 0.11893,-3.56332 0.11893,-3.56331 0.76055,-1.55629 0.76056,-1.5563 1.43384,-0.90931 1.43384,-0.90931 1.80005,-0.40742 1.80004,-0.40742 5.92,-0.004 5.92,-0.004 1.90568,0.5849 1.90568,0.58491 1.18079,1.18078 1.18078,1.18078 0.51354,1.72927 0.51353,1.72926 v 1.70192 1.70192 h -3.2 -3.2 v -1.25917 -1.25917 l -0.30625,-0.8055 -0.30625,-0.80551 -1.05375,-0.55967 -1.05375,-0.55967 -4.16,0.0132 -4.16,0.0132 -1.17424,0.5041 -1.17424,0.50409 -0.37172,0.69455 -0.37171,0.69455 -0.1617,1.65254 -0.1617,1.65254 0.42766,1.26364 0.42765,1.26363 0.96,0.54804 0.96,0.54803 5.64036,0.36798 5.64036,0.36798 1.80084,0.41862 1.80083,0.41862 1.24004,0.82061 1.24004,0.82062 0.75851,1.54112 0.75851,1.54111 -0.007,4 -0.007,4 -0.40982,1.37814 -0.40982,1.37813 -1.12766,1.24818 -1.12765,1.24818 -1.81513,0.70618 -1.81513,0.70618 z m 208.49277,0.095 -6.09277,-0.0216 -1.4626,-0.39436 -1.46261,-0.39436 -1.48889,-0.87254 -1.48889,-0.87255 -0.83886,-1.43141 -0.83886,-1.4314 -0.51788,-1.84009 -0.51788,-1.84009 -0.0118,-8.8 -0.0118,-8.8 0.73392,-2.3355 0.73392,-2.33551 1.50608,-1.55581 1.50608,-1.55581 1.92,-0.58625 1.92,-0.58625 6.56,-0.002 6.56,-0.002 1.86461,0.57609 1.86461,0.5761 1.37915,1.27125 1.37914,1.27125 0.64875,1.51265 0.64874,1.51266 0.38466,2.64237 0.38466,2.64237 -0.15751,7.43763 -0.15751,7.43763 -0.53371,1.92 -0.53371,1.92 -0.78867,1.19727 -0.78867,1.19727 -1.19727,0.78866 -1.19727,0.78867 -1.90723,0.49407 -1.90723,0.49406 z m 0.94723,-3.28091 6.08,-0.0575 1.25935,-0.66065 1.25935,-0.66066 0.58017,-1.11796 0.58017,-1.11796 0.3437,-1.85927 0.34371,-1.85927 -0.1284,-8.36211 -0.12839,-8.36212 -0.38713,-1.19006 -0.38712,-1.19007 -0.81106,-0.96389 -0.81107,-0.96389 -1.33664,-0.39919 -1.33664,-0.39919 -6.08,-0.002 -6.08,-0.002 -1.15294,0.40402 -1.15294,0.40402 -0.67624,0.71983 -0.67624,0.71982 -0.54919,1.43089 -0.54919,1.43089 -0.12992,8.08369 -0.12992,8.0837 0.36854,2.18494 0.36854,2.18494 0.60448,0.99398 0.60447,0.99398 0.84282,0.55223 0.84282,0.55224 1.17246,0.24264 1.17245,0.24263 z m 38.26123,3.26975 -5.62123,-0.0328 -0.96,-0.23371 -0.96,-0.23371 -0.96,-0.50497 -0.96,-0.50496 -0.86757,-0.91311 -0.86756,-0.9131 -0.50227,-1.42359 -0.50228,-1.42358 -0.19711,-2.33188 -0.19712,-2.33188 h 1.92396 1.92396 l 0.15584,2.17804 0.15583,2.17803 0.44716,0.91319 0.44716,0.91318 0.90379,0.66878 0.90379,0.66878 h 6.29621 6.29621 l 1.03699,-0.56666 1.03699,-0.56666 0.55378,-0.84518 0.55379,-0.84518 0.11561,-3.06816 0.1156,-3.06816 -0.42638,-1.26364 -0.42638,-1.26363 -0.97931,-0.57038 -0.97932,-0.57038 -5.58068,-0.33328 -5.58069,-0.33327 -1.99215,-0.34746 -1.99214,-0.34747 -1.40174,-0.88895 -1.40174,-0.88895 -0.75418,-1.5563 -0.75418,-1.55629 -0.12741,-2.8984 -0.12741,-2.8984 0.39429,-1.9016 0.39429,-1.9016 1.32922,-1.33014 1.32922,-1.33014 1.91197,-0.58986 1.91196,-0.58986 5.92,0.005 5.92,0.005 1.31167,0.39423 1.31167,0.39423 1.06936,0.72068 1.06936,0.72068 0.7528,1.46288 0.7528,1.46287 0.19259,2.29713 0.19258,2.29712 H 385.00642 383.04 l -4.9e-4,-1.52 -5e-4,-1.52 -0.5595,-1.12 -0.55951,-1.12 -1.28,-0.64 -1.28,-0.64 -5.28,0.01 -5.28,0.01 -1.24059,0.60595 -1.24059,0.60596 -0.59238,1.30427 -0.59238,1.30428 -0.007,2.51164 -0.007,2.51164 0.52315,1.10245 0.52315,1.10246 0.99106,0.51249 0.99105,0.5125 4.3258,0.27803 4.32579,0.27804 2.96969,0.29674 2.96968,0.29674 1.33793,0.73864 1.33794,0.73863 0.71379,1.05974 0.71379,1.05973 0.37933,1.82027 0.37933,1.82026 -0.17716,3.04 -0.17716,3.04 -0.39252,1.12 -0.39253,1.12 -0.618,0.88724 -0.618,0.88725 -1.18321,0.60362 -1.1832,0.60363 -1.88862,0.34913 -1.88862,0.34913 z m 39.33877,-0.0882 -6.88,0.10954 -1.36902,-0.44321 -1.36903,-0.44321 -1.06797,-0.81458 -1.06797,-0.81458 -0.72288,-1.53651 -0.72289,-1.53652 -0.16522,-2.64 -0.16523,-2.64 h 1.96511 1.9651 v 1.91352 1.91353 l 0.48935,1.223 0.48935,1.22301 1.03065,0.62347 1.03065,0.62348 h 6.08 6.08 l 1.17875,-0.53479 1.17875,-0.53479 0.56117,-1.06521 0.56118,-1.06521 0.0201,-3.41645 0.0201,-3.41645 -0.66877,-0.90355 -0.66878,-0.90355 -0.79533,-0.39067 -0.79533,-0.39067 -6.69589,-0.47263 -6.6959,-0.47263 -1.27417,-0.41316 -1.27417,-0.41315 -1.33454,-1.28354 -1.33454,-1.28355 -0.40589,-1.44 -0.40588,-1.44 0.009,-2.88 0.009,-2.88 0.36511,-1.31167 0.36511,-1.31167 0.72068,-1.06936 0.72068,-1.06936 1.44,-0.73772 1.44,-0.73771 2.72,-0.36434 2.72,-0.36433 4.48,0.17727 4.48,0.17726 1.43881,0.51942 1.43881,0.51943 1.03723,1.00533 1.03724,1.00532 0.46327,1.30107 0.46328,1.30106 0.19657,2 0.19657,2 h -1.89901 -1.89902 l -0.22985,-1.83967 -0.22986,-1.83966 -0.46827,-0.90555 -0.46827,-0.90554 -1.17875,-0.52744 -1.17875,-0.52744 -5.28,-0.005 -5.28,-0.005 -1.27109,0.63741 -1.27109,0.63741 -0.64891,1.12 -0.64891,1.12 0.0142,2.73769 0.0141,2.7377 0.64199,1.1023 0.64199,1.10231 0.94386,0.4628 0.94385,0.4628 6.3349,0.40888 6.3349,0.40887 1.3451,0.3576 1.3451,0.3576 0.97219,0.59491 0.97219,0.59492 0.70245,1.24983 0.70244,1.24984 0.3337,2.35283 0.33369,2.35283 -0.19465,1.93314 -0.19464,1.93315 -0.45113,1.64045 -0.45112,1.64046 -1.25991,1.13825 -1.25991,1.13825 -1.22265,0.38606 -1.22265,0.38606 z m 161.12001,-0.0109 -6.72,0.0885 -1.33556,-0.2775 -1.33555,-0.2775 -1.06445,-0.53612 -1.06444,-0.53612 -1.20206,-1.15169 -1.20206,-1.1517 -0.66821,-1.77304 -0.6682,-1.77305 -0.28852,-5.28 -0.28851,-5.28 0.17377,-3.84 0.17378,-3.84 0.33313,-1.95701 0.33312,-1.95701 0.94096,-1.64756 0.94097,-1.64757 1.27682,-0.92492 1.27682,-0.92493 1.67409,-0.4305 1.6741,-0.4305 6.72,0.0161 6.72,0.0161 1.79865,0.71145 1.79866,0.71145 1.10727,1.07537 1.10728,1.07536 0.55212,1.16352 0.55212,1.16351 0.45639,2.1536 0.45639,2.15359 0.003,7.36 0.003,7.36 -0.32796,2.08 -0.32796,2.08 -0.86962,1.75997 -0.86962,1.75996 -1.36809,1.02723 -1.36808,1.02722 -1.19192,0.38264 -1.19191,0.38265 z m 0,-3.1707 6.08,-0.0575 1.28,-0.64 1.28,-0.64 0.8,-1.6 0.8,-1.6 0.10216,-9.02573 0.10215,-9.02572 -0.51497,-2.01014 -0.51497,-2.01014 -0.83997,-0.87674 -0.83997,-0.87674 -1.14722,-0.40664 -1.14721,-0.40664 -6.4,-3.5e-4 -6.4,-3.6e-4 -1.28,0.6396 -1.28,0.6396 -0.7243,1.32432 -0.72429,1.32432 -0.30583,2.35568 -0.30582,2.35568 -0.004,6.08 -0.004,6.08 0.32292,2.23453 0.32291,2.23453 0.55075,1.10482 0.55075,1.10482 0.85927,0.62765 0.85927,0.62766 1.22073,0.25048 1.22073,0.25048 z M 11.12,270.01657 0,270.11784 v -17.6445 -17.64451 l 10.96,0.11953 10.96,0.11953 1.6,0.58462 1.6,0.58461 1.12,0.81069 1.12,0.81069 0.769439,0.94109 0.76944,0.94108 0.83056,1.96969 0.830561,1.96969 v 8.48 8.48 l -0.579996,1.87804 -0.579997,1.87803 -0.767918,1.21646 -0.767919,1.21646 -1.113179,0.84907 -1.113178,0.84906 -1.698907,0.69406 L 22.24,269.9153 Z m 2.45743,-5.75376 6.857431,-0.10276 0.902569,-0.65663 0.90257,-0.65663 0.8,-1.58337 0.8,-1.58337 v -7.2 -7.2 l -0.407397,-1.14722 -0.407397,-1.14721 -0.872603,-0.82297 L 21.28,241.33968 20,240.99165 l -1.28,-0.34803 -6,-0.002 -6,-0.002 v 11.86276 11.86277 z m 29.942572,5.81727 h -3.2 v -17.6 -17.6 l 9.52,0.002 9.52,0.002 2.08,0.33503 2.08,0.33502 1.6,0.89694 1.6,0.89695 0.96,1.86241 0.96,1.86241 0.11202,3.91116 0.11203,3.91116 -0.51454,1.76994 -0.51454,1.76995 -0.92949,0.92949 -0.92949,0.92949 -1.86799,0.58966 -1.868,0.58966 1.57966,0.40502 1.57967,0.40501 0.82033,0.61138 0.82034,0.61139 0.64,1.08655 0.64,1.08655 0.10753,5.2 0.10754,5.2 h -3.38754 -3.38753 v -4.33589 -4.33589 l -0.48542,-0.93869 -0.48541,-0.9387 -1.03459,-0.5594 -1.03458,-0.55941 -6,-0.11599 -6,-0.11598 v 5.94998 5.94997 z m 8.88,-17.30459 5.68,-0.0246 1.2728,-0.38364 1.2728,-0.38364 0.75133,-1.11176 0.75132,-1.11177 -0.10413,-3.59357 -0.10412,-3.59358 -0.88657,-0.88642 -0.88658,-0.88643 -6.71342,-0.098 -6.71343,-0.098 v 6.09796 6.09796 z m 38,17.30459 h -12 v -17.6 -17.6 h 12 H 102.4 v 2.72 2.72 h -8.799998 -8.8 v 4.64 4.64 h 8.32 8.319998 v 2.4 2.4 h -8.319998 -8.32 v 5.12 5.12 h 8.8 H 102.4 v 2.72 2.72 z m 68.092768,0 H 148.16 v -17.62561 -17.62561 l 10.96,0.12419 10.96,0.1242 1.72238,0.60371 1.72237,0.60371 1.67545,1.53127 1.67545,1.53127 0.66039,1.53511 0.66039,1.53511 0.3822,2.19475 0.3822,2.19476 -0.16553,7.07657 -0.16552,7.07657 -0.51787,1.6483 -0.51788,1.64831 -1.03701,1.54237 -1.03702,1.54237 -1.44,0.87838 -1.44,0.87838 -1.90723,0.49094 -1.90723,0.49095 z m 2.71943,-5.76 h 6.33219 l 1.42781,-0.72 1.4278,-0.72 0.8,-1.6 0.8,-1.6 v -7.2 -7.2 l -0.40739,-1.14722 -0.4074,-1.14721 -0.8726,-0.82297 -0.87261,-0.82297 -1.28,-0.34803 -1.28,-0.34803 -6,-0.002 -6,-0.002 v 11.84 11.84 z m 38.7878,5.76 h -12.16 v -17.6 -17.6 H 200 212.16 v 2.72 2.72 h -8.8 -8.8 v 4.64 4.64 h 8.32 8.32 v 2.4 2.4 h -8.32 -8.32 v 5.12 5.12 h 8.8 8.8 v 2.72 2.72 z m 24.64,0 h -3.2 V 252.4727 234.86531 l 5.66076,0.0874 5.66077,0.0874 7.32018,14.55427 7.32017,14.55428 0.096,0.096 0.096,0.096 -0.16326,-14.73028 -0.16327,-14.73028 h 3.40632 3.40632 v 17.60738 17.60739 l -5.67993,-0.0874 -5.67993,-0.0874 -4.8585,-9.28 -4.8585,-9.28 -2.31629,-5.12 -2.31629,-5.12 -0.26528,-0.304 -0.26528,-0.304 v 14.784 14.784 z m 57.6,0 h -1.92 v -17.62353 -17.62353 l 10.32,0.12898 10.32,0.12899 1.27418,0.451 1.27417,0.451 1.33307,1.28354 1.33306,1.28355 0.51276,1.73808 0.51276,1.73808 v 3.16022 3.16022 l -0.34991,1.38961 -0.34991,1.38962 -0.85009,1.01546 -0.85009,1.01546 -1.71166,0.57817 -1.71166,0.57817 0.27166,0.16082 0.27166,0.16083 1.05892,0.22721 1.05891,0.22721 1.0539,1.0539 1.05391,1.05391 0.36718,1.45822 0.36718,1.45821 v 4.9783 4.9783 h -1.92 -1.92 v -5.0522 -5.05219 l -0.72,-1.40413 -0.72,-1.40413 -1.115,-0.58367 -1.11501,-0.58368 H 291.765 284.16 v 7.04 7.04 z m 9.5322,-17.6 h 7.61219 l 1.42781,-0.72 1.4278,-0.72 0.55951,-1.12 0.5595,-1.12 v -3.52 -3.52 l -0.5595,-1.12 -0.55951,-1.12 -1.28,-0.64 -1.28,-0.64 -7.76,-0.10907 -7.76,-0.10907 v 7.22907 7.22907 z m 157.1878,17.6 h -11.2 v -17.6 -17.6 h 11.2 11.2 v 1.6 1.6 h -9.28 -9.28 v 6.08 6.08 h 8.96 8.96 v 1.6 1.6 h -8.96 -8.96 v 6.72 6.72 h 9.28 9.28 v 1.6 1.6 z m 25.92001,0 H 472.96 v -17.61119 -17.6112 l 3.25835,0.0912 3.25834,0.0912 5.47294,8.96 5.47293,8.96 4.38872,7.17362 4.38873,7.17361 V 251.0937 234.88008 h 1.92 1.92 v 17.61119 17.6112 l -3.24194,-0.0912 -3.24193,-0.0912 -9.54342,-15.52 -9.54342,-15.52 -0.31583,-0.48 -0.31583,-0.48 -0.0188,16.08 -0.0188,16.08 z m 52.72,-0.0663 -10.48,0.11277 v -17.62322 -17.62325 l 9.2,0.002 9.2,0.002 1.92,0.3117 1.92,0.31171 1.73108,0.88644 1.73109,0.88644 1.06536,1.54979 1.06536,1.54979 0.53538,1.65021 0.53538,1.65021 0.13832,7.45555 0.13831,7.45555 -0.36878,2.14445 -0.36878,2.14445 -0.73679,1.62131 -0.73678,1.6213 -1.20592,1.17117 -1.20592,1.17117 -1.79866,0.71801 -1.79865,0.718 z m 0.22424,-3.13373 h 6.86425 l 1.69575,-0.35943 1.69576,-0.35942 1.22698,-0.62085 1.22698,-0.62084 0.85302,-1.81973 0.85302,-1.81973 v -8.8 -8.8 l -0.83865,-1.78834 -0.83865,-1.78835 -1.1093,-0.68558 -1.1093,-0.68559 -2.21205,-0.31973 -2.21205,-0.31973 -6.48,-0.006 -6.48,-0.006 v 14.4 14.4 z m 75.05576,3.2 h -1.92 v -17.62353 -17.62353 l 10.32,0.12898 10.32,0.12899 1.27417,0.451 1.27417,0.451 1.33307,1.28354 1.33307,1.28355 0.51276,1.73808 0.51276,1.73808 v 3.16022 3.16022 l -0.34991,1.38961 -0.34991,1.38962 -0.85009,1.01546 -0.85009,1.01546 -1.71167,0.57817 -1.71166,0.57817 0.27166,0.16082 0.27167,0.16083 1.05891,0.22721 1.05891,0.22721 1.05391,1.0539 1.0539,1.05391 0.36718,1.45822 0.36719,1.45821 v 4.9783 4.9783 h -1.92 -1.92 v -5.0522 -5.05219 l -0.72,-1.40413 -0.72,-1.40413 -1.11501,-0.58367 -1.11501,-0.58368 h -7.60499 -7.60499 v 7.04 7.04 z m 9.53219,-17.6 h 7.6122 l 1.4278,-0.72 1.42781,-0.72 0.5595,-1.12 0.5595,-1.12 v -3.52 -3.52 l -0.5595,-1.10911 -0.5595,-1.10912 -1.12,-0.65088 -1.12,-0.65089 -7.92,-0.11238 -7.92,-0.11237 v 7.23237 7.23238 z m 30.78781,17.6 h -1.92 v -17.6 -17.6 h 10.88 10.88 v 1.6 1.6 h -8.96 -8.96 v 6.24 6.24 h 8.64 8.64 v 1.6 1.6 h -8.64 -8.64 v 8.16 8.16 z m -81.12,-56.54607 -3.52,0.13954 -3.04,-0.23918 -3.04,-0.23917 -1.12,-0.41202 -1.12,-0.41203 -1.19597,-0.78538 -1.19596,-0.78539 -0.88404,-1.80015 -0.88403,-1.80015 -0.10036,-14.64 -0.10035,-14.64 h 1.92518 1.92519 l 0.0952,14.53697 0.0952,14.53697 0.67345,0.90303 0.67345,0.90303 1.08655,0.64 1.08655,0.64 h 6.4 6.4 l 1.17511,-0.53327 1.17511,-0.53327 0.58489,-0.89219 0.58489,-0.89219 0.0922,-14.65454 0.0922,-14.65454 h 1.90779 1.90779 v 13.90425 13.90425 l -0.33859,1.57877 -0.33859,1.57878 -0.78994,1.0707 -0.78994,1.07071 -1.29228,0.8679 -1.29227,0.8679 -1.6592,0.31557 -1.65919,0.31556 z m -349.92001,-0.2069 -6.56,0.0904 -1.6,-0.42465 -1.6,-0.42465 -0.87754,-0.3552 -0.87755,-0.35519 -1.40621,-1.2962 -1.4062,-1.2962 -0.64931,-1.51265 -0.64931,-1.51266 -0.34694,-2.50316 -0.34694,-2.50315 0.003,-5.17685 0.003,-5.17684 0.32719,-2.85603 0.32718,-2.85602 0.59414,-1.34315 0.59413,-1.34314 1.15228,-1.27543 1.15228,-1.27544 1.93104,-0.8666 1.93104,-0.8666 4.16931,-0.33919 4.16932,-0.33919 3.74342,0.35133 3.74342,0.35133 2.08,1.05166 2.08,1.05166 1.03702,1.5491 1.03701,1.5491 0.5342,1.64831 0.5342,1.6483 0.13927,7.2866 0.13927,7.28659 -0.34311,2.54949 -0.34311,2.54949 -0.78251,1.54422 -0.78252,1.54422 -1.26299,1.14104 -1.263,1.14104 -1.88186,0.73696 -1.88187,0.73696 z m 0.74926,-5.50536 3.78927,-0.13938 1.13392,-0.53809 1.13393,-0.53808 0.67681,-1.46305 0.67681,-1.46304 0.10523,-6.88 0.10523,-6.88 -0.20624,-1.66385 -0.20623,-1.66385 -0.71094,-1.05615 -0.71094,-1.05615 -0.94805,-0.48 -0.94806,-0.48 h -5.28 -5.28 l -1.03686,0.56659 -1.03686,0.5666 -0.72314,1.3534 -0.72314,1.35341 v 8.16 8.16 l 0.6899,1.49263 0.6899,1.49263 0.7422,0.39722 0.74219,0.39721 1.76791,0.25066 1.7679,0.25067 z M 3.36,213.12008 H 0 v -17.6 -17.6 h 3.36 3.36 v 7.36 7.36 h 8.32 8.32 v -7.36 -7.36 h 3.36 3.36 v 17.6 17.6 h -3.36 -3.36 v -7.52 -7.52 H 15.04 6.72 v 7.52 7.52 z m 48.800002,0 h -12.16 v -17.6 -17.6 h 12 12 v 2.72 2.72 h -8.64 -8.64 v 4.8 4.8 h 8.16 8.16 v 2.4 2.4 h -8.16 -8.16 v 4.96 4.96 h 8.8 8.8 v 2.72 2.72 z m 32.96,0 h -11.52 v -17.6 -17.6 h 3.2 3.2 v 14.72 14.72 h 8.32 8.32 v 2.88 2.88 z m 23.244898,0 H 104.96 v -17.6 -17.6 h 5.40577 5.40576 l 0.21963,0.56 0.21963,0.56 3.38532,8.8 3.38533,8.8 1.14928,3.62534 1.14928,3.62533 0.29161,0.0547 0.29161,0.0547 1.8423,-5.6 1.8423,-5.6 2.83055,-7.36 2.83054,-7.36 5.51555,-0.0876 5.51554,-0.0875 v 17.60747 17.60756 h -3.41208 -3.41208 l 0.22289,-14 0.2229,-14 0.18649,-0.88 0.18649,-0.88 -0.2773,0.007 -0.27731,0.007 -1.39579,4.39301 -1.39579,4.39302 -4.0668,10.4 -4.0668,10.4 -3.04286,0.0909 -3.04287,0.0909 -4.33548,-10.97093 -4.33549,-10.97093 -1.22866,-3.76 -1.22865,-3.76 h -0.28773 -0.28772 l 0.2185,0.72 0.21849,0.72 0.18373,14 0.18372,14 z m 51.6351,0 h -3.2 v -17.6 -17.6 h 3.2 3.2 v 7.36 7.36 h 8.32 8.32 v -7.36 -7.36 h 3.36 3.36 v 17.6 17.6 h -3.36 -3.36 v -7.52 -7.52 h -8.32 -8.32 v 7.52 7.52 z m 88,0 h -11.52 v -17.6 -17.6 h 3.36 3.36 v 14.72 14.72 h 8.16 8.16 v 2.88 2.88 z m 27.04,0 h -3.36 v -14.72 -14.72 h -5.12 -5.12 v -2.88 -2.88 h 13.76 13.76 v 3.04 3.04 h -5.28 -5.28 v 14.56 14.56 z m 34.88,0 H 296 v -2.8176 -2.8176 l 9.6,-11.73051 9.6,-11.73052 v -0.17188 -0.17189 h -9.28 -9.28 v -2.88 -2.88 h 13.6 13.6 l -0.0102,2.8 -0.0102,2.8 -9.74981,11.81802 -9.74982,11.81803 v 0.26197 0.26198 h 9.76 9.76 v 2.72 2.72 z m 53.92,0 h -13.76 v -1.55253 -1.55253 l 11.15024,-14.20747 11.15023,-14.20747 -10.83023,-0.0842 -10.83024,-0.0842 v -1.7558 -1.7558 H 364 377.28 v 1.62289 1.6229 l -11.19868,14.2971 -11.19869,14.29711 11.35869,0.084 11.35868,0.084 v 1.59596 1.59596 z m 36.96,0 h -11.36 v -17.6 -17.6 h 11.36 11.36 v 1.76 1.76 h -9.44 -9.44 v 6.08 6.08 h 8.96 8.96 v 1.6 1.6 h -8.96 -8.96 v 6.56 6.56 h 9.44 9.44 v 1.6 1.6 z m 25.92,0 h -1.76 v -17.6 -17.6 l 3.12,0.0127 3.12,0.0127 4,6.61717 4,6.61716 5.68765,9.28176 5.68764,9.28177 0.23236,0.23263 0.23235,0.23262 -0.0939,-16.14427 -0.0939,-16.14427 h 1.93386 1.93385 v 17.6 17.6 h -3.16735 -3.16735 l -9.10039,-14.8 -9.10039,-14.8 -0.60125,-1.04 -0.60125,-1.04 H 428.73101 428.48 v 15.84 15.84 z m 53.60001,0 h -1.92 v -15.84 -15.84 H 472.64 466.88 v -1.76 -1.76 h 13.44001 13.44 v 1.76 1.76 h -5.76 -5.76 v 15.84 15.84 z m 27.2,0 h -1.92 v -17.63022 -17.63022 l 10.16,0.14384 10.16,0.14384 1.15764,0.36973 1.15764,0.36972 1.07474,0.72427 1.07475,0.72427 0.72829,1.08072 0.7283,1.08071 0.36326,1.31167 0.36327,1.31167 v 3.2 3.2 l -0.37741,1.3642 -0.37742,1.3642 -0.97621,1.11185 -0.97621,1.11184 -1.33032,0.3779 -1.33032,0.3779 -0.25992,0.22197 -0.25992,0.22197 1.29172,0.20656 1.29172,0.20655 1.06044,1.06044 1.06044,1.06044 0.38776,1.29422 0.38776,1.29421 v 5.16288 5.16287 h -1.89357 -1.89357 l -0.10643,-5.52 -0.10643,-5.52 -0.71588,-1.0036 -0.71587,-1.00361 -1.2906,-0.51639 -1.29061,-0.5164 h -7.35352 -7.35352 v 7.04 7.04 z m 9.52,-17.34362 7.6,-0.13018 1.12,-0.50186 1.12,-0.50186 0.73044,-0.79298 0.73045,-0.79299 0.36197,-1.94639 0.36197,-1.94639 -0.33398,-2.75419 -0.33397,-2.75419 -0.59844,-0.67184 -0.59844,-0.67184 -1.02973,-0.43584 -1.02972,-0.43583 h -7.85028 -7.85027 v 7.23328 7.23328 z m 72.71704,17.34362 h -1.91704 v -17.61083 -17.61082 l 3.40966,0.0908 3.40967,0.0908 2.50446,6.08 2.50445,6.08 3.58337,8.8 3.58337,8.8 0.20889,0.25038 0.20889,0.25038 6.21362,-15.20635 6.21362,-15.20636 3.44,-0.004 3.44,-0.004 v 17.6 17.6 h -1.91707 -1.91707 l -0.0829,-16.24 -0.0829,-16.24 -4.85975,11.84 -4.85975,11.84 -1.81655,4.4 -1.81655,4.4 h -1.9782 -1.97819 l -6.70551,-16.08 -6.7055,-16.08 -0.083,16.08 -0.083,16.08 z M 16.32,113.28008 H 0 v -31.680003 -31.68 H 71.040002 142.08 v 31.68 31.680003 h -16.16 -16.16 v -17.760003 -17.76 H 71.200002 32.64 v 17.76 17.760003 z m 214.08,0 H 163.84 V 99.236027 85.191987 l 24.88,-17.62368 24.88,-17.62368 26.21466,-0.0123 26.21466,-0.0123 -6.21466,4.40667 -6.21466,4.40666 -18.54122,13.11334 -18.54122,13.11333 40.22122,0.0812 40.22122,0.0812 v 14.07889 14.078763 z m 143.13604,0 H 318.72 v -31.680003 -31.68 h 16.16 16.16 v 17.61045 17.61045 l 36.08,-0.10349 36.08,-0.10349 1.90258,-0.57328 1.90258,-0.57328 1.54835,-0.78461 1.54835,-0.78461 1.30067,-1.30067 1.30067,-1.30067 0.91662,-1.9684 0.91662,-1.9684 0.49178,-2.84192 0.49178,-2.84191 v -13.35617 -13.35617 l -0.49178,-2.84191 -0.49178,-2.841917 -0.91662,-1.9684 -0.91662,-1.9684 -1.3432,-1.3432 -1.3432,-1.3432 -1.9684,-0.91662 -1.9684,-0.91662 -2.84191,-0.49178 -2.84192,-0.49178 H 369.55809 318.72 v -14.08 -14.08 l 54.64,0.001 54.64,0.001 4.48,0.33843 4.48,0.33842 3.64749,0.62296 3.64749,0.62295 3.39251,1.13403 3.39251,1.13404 2.38486,1.28501 2.38486,1.28502 1.86456,1.49827 1.86456,1.49827 1.75954,2.19739 1.75953,2.1974 1.27959,2.64363 1.2796,2.64363 0.77787,3.06646 0.77787,3.06646 0.41358,2.81251 L 468,31.19948 v 25.439997 25.44 l -0.41358,2.81251 -0.41358,2.81252 -0.77787,3.06646 -0.77787,3.06646 -1.27101,2.62589 -1.271,2.62589 -1.73421,2.215143 -1.7342,2.21513 -1.95539,1.53499 -1.95539,1.53499 -2.64795,1.39558 -2.64795,1.39557 -3.1646,1.0025 -3.1646,1.00249 -3.5554,0.60479 -3.5554,0.60479 -4.30396,0.34215 -4.30397,0.34215 z m 132.38397,0 h -16.32 V 81.607977 49.935887 l 48.72,-0.0879 48.72,-0.0879 2.19078,-0.74237 2.19079,-0.74236 1.36652,-1.36652 1.36652,-1.36652 0.55505,-1.6711 0.55505,-1.6711 -0.12404,-3.90001 -0.12404,-3.900017 -0.67718,-1.28 -0.67717,-1.28 -0.75114,-0.68389 -0.75114,-0.68388 -1.41994,-0.7132 -1.41994,-0.7132 -2.42006,-0.43175 -2.42006,-0.43175 -47.44,-0.0112 -47.44,-0.0112 V 14.08 0 h 54.22745 54.22745 l 3.29255,0.35454 3.29255,0.35454 3.04,0.75933 3.04,0.75933 3.04,1.49409 3.04,1.4941 2.57764,2.59203 2.57765,2.59204 1.34093,2.60612 1.34092,2.60612 0.78894,2.99388 0.78893,2.99388 0.33249,2.7116 0.3325,2.71161 V 33.6 40.176787 l -0.32298,2.57581 -0.32298,2.57582 -0.48183,1.89579 -0.48183,1.89579 -1.12258,2.29959 -1.12259,2.29958 -1.84699,1.86042 -1.84699,1.86041 -2.03731,1.18756 -2.03731,1.18756 -3.3058,1.05244 -3.3058,1.05244 -0.003,0.17487 -0.003,0.17487 2.48,0.56751 2.48,0.56752 2.70734,1.29935 2.70734,1.29936 1.79664,1.79826 1.79665,1.79826 1.1712,2.4 1.17121,2.4 0.48932,1.92 0.48933,1.92 0.31286,2.72 0.31286,2.72 0.003,14.8 0.003,14.800003 h -16.32 -16.32 l -0.006,-12.4 -0.006,-12.400003 -0.45195,-2.13241 -0.45196,-2.13241 -0.53831,-1.06759 -0.53831,-1.06759 -1.00418,-1.0673 -1.00417,-1.0673 -0.96,-0.50255 -0.96,-0.50255 -1.6,-0.49329 -1.6,-0.49329 -31.28,-0.1115 -31.28,-0.11151 V 95.505357 113.28 Z M 125.92,28.16008 h -16.16 v -14.08 -14.08 h 16.16 16.16 v 14.08 14.08 z m 104.48,0 h -66.56 v -14.08 -14.08 h 66.56 66.56 v 14.08 14.08 z"
     id="path11" />
</svg>
