<?xml version="1.0" encoding="UTF-8" standalone="no"?>
<svg
   width="934.98"
   height="571.14"
   viewBox="0 0 934.98 571.14"
   version="1.1"
   id="svg13"
   sodipodi:docname="and-next.svg"
   inkscape:version="1.3.1 (91b66b0783, 2023-11-16)"
   xmlns:inkscape="http://www.inkscape.org/namespaces/inkscape"
   xmlns:sodipodi="http://sodipodi.sourceforge.net/DTD/sodipodi-0.dtd"
   xmlns="http://www.w3.org/2000/svg"
   xmlns:svg="http://www.w3.org/2000/svg">
  <defs
     id="defs13" />
  <sodipodi:namedview
     id="namedview13"
     pagecolor="#c1c4f8"
     bordercolor="#666666"
     borderopacity="1.0"
     inkscape:showpageshadow="2"
     inkscape:pageopacity="0.0"
     inkscape:pagecheckerboard="0"
     inkscape:deskcolor="#d1d1d1"
     inkscape:zoom="0.62544367"
     inkscape:cx="499.64532"
     inkscape:cy="116.71715"
     inkscape:window-width="1920"
     inkscape:window-height="1006"
     inkscape:window-x="1920"
     inkscape:window-y="0"
     inkscape:window-maximized="1"
     inkscape:current-layer="svg13" />
  <path
     d="m733.52,89.21s-20.58,2.32-21.91,34.19c-1.11,26.56-3.37,41.36,7.44,46.9,3.86,1.98,8.4,2.15,12.53.8l44.1-14.5s.66-47.8-14.61-59.42-27.55-7.97-27.55-7.97h0Z"
     fill="#36344e"
     stroke-width="0"
     id="path1" />
  <polygon
     points="757.83 162.46 735.51 169.8 735.51 137.67 755.76 137.67 757.83 162.46"
     fill="#faafb2"
     stroke-width="0"
     id="polygon1" />
  <path
     id="uuid-ea0a1472-32fb-4242-948a-de51795c4bd3-46-44-46-72-78-43-43"
     d="m689.6,344.84c-1.21,7.36-6.12,12.64-10.96,11.79-4.85-.85-7.79-7.51-6.58-14.87.44-2.95,1.61-5.74,3.4-8.13l5.53-31.12,15.05,3.15-7.05,30.34c.93,2.87,1.14,5.9.61,8.84h0Z"
     fill="#faafb2"
     stroke-width="0" />
  <polygon
     points="740.7 551.77 719.8 551.77 707.67 440.07 739.99 440.07 740.7 551.77"
     fill="#faafb2"
     stroke-width="0"
     id="polygon2" />
  <path
     d="m699.44,569.72c-2.2,0-4.16-.05-5.63-.19-5.55-.51-10.85-4.61-13.51-7-1.19-1.07-1.58-2.79-.96-4.27h0c.45-1.06,1.34-1.85,2.45-2.17l14.67-4.19,23.76-16.03.27.48c.1.18,2.43,4.38,3.21,7.22.3,1.08.22,1.98-.23,2.68-.31.48-.75.76-1.1.92.43.45,1.78,1.36,5.93,2.02,6.07.96,7.33-5.32,7.39-5.58l.04-.21.18-.12c2.88-1.86,4.66-2.7,5.27-2.52.38.11,1.02.31,2.74,17.41.17.54,1.38,4.47.56,8.24-.89,4.1-18.78,2.69-22.36,2.36-.1.01-13.49.96-22.67.96h-.01Z"
     fill="#36344e"
     stroke-width="0"
     id="path2"
     style="fill:#0a2d6e" />
  <polygon
     points="787.93 551.77 767.02 551.77 754.9 440.07 787.21 440.07 787.93 551.77"
     fill="#faafb2"
     stroke-width="0"
     id="polygon3" />
  <path
     d="m746.67,569.72c-2.2,0-4.16-.05-5.63-.19-5.55-.51-10.85-4.61-13.51-7-1.19-1.07-1.58-2.79-.96-4.27h0c.45-1.06,1.34-1.85,2.45-2.17l14.67-4.19,23.76-16.03.27.48c.1.18,2.43,4.38,3.21,7.22.3,1.08.22,1.98-.23,2.68-.31.48-.75.76-1.1.92.43.45,1.78,1.36,5.93,2.02,6.07.96,7.33-5.32,7.39-5.58l.04-.21.18-.12c2.89-1.86,4.66-2.7,5.27-2.52.38.11,1.02.31,2.74,17.41.17.54,1.38,4.47.56,8.24-.89,4.1-18.78,2.69-22.36,2.36-.1.01-13.49.96-22.67.96h-.01Z"
     fill="#36344e"
     stroke-width="0"
     id="path3"
     style="fill:#0a2d6e" />
  <polygon
     points="793.94 277.42 692.37 277.42 728.88 157.26 769.38 157.26 793.94 277.42"
     fill="#dfdfe0"
     stroke-width="0"
     id="polygon4" />
  <path
     d="m735.27,157.27s-25.23-.66-27.88,5.98-33.86,164.65-33.86,164.65h20.58l41.16-170.62h0Z"
     fill="#dfdfe0"
     stroke-width="0"
     id="path4" />
  <circle
     cx="738.27"
     cy="124.32"
     r="22.24"
     fill="#faafb2"
     stroke-width="0"
     id="circle4" />
  <path
     d="m732.19,97.51s-12.24,49.7,1.37,72.93l-19.17-4.07s-7.43-54.39,7.51-64.28c0,0,10.29-4.58,10.29-4.58Z"
     fill="#36344e"
     stroke-width="0"
     id="path5" />
  <path
     d="m772.83,277.42h-66.66l-36.47,149.69c-.67,6.32,3.34,12.22,9.48,13.87,20.01,5.36,68.03,12.95,140.7-8.2,6.99-2.03,10.96-9.41,8.77-16.36l-55.82-139h0Z"
     fill="#36344e"
     stroke-width="0"
     id="path6"
     style="fill:#0a2d6e" />
  <path
     d="m745.88,157.26l20.73-.91c8.98.68,17.1,5.56,21.91,13.17,14.65,23.16,42.06,71.97,17.59,78.66-32.26,8.81-47.89-40.24-47.89-40.24l-12.34-50.68h0Z"
     fill="#dfdfe0"
     stroke-width="0"
     id="path7" />
  <path
     id="uuid-298a271f-a3d1-4ea5-9ac1-ac2853dfa275-47-45-47-73-79-44-44"
     d="m738.77,171.8c-4.26-6.12-4.41-13.33-.35-16.1,4.07-2.77,10.82-.04,15.08,6.08,1.74,2.42,2.84,5.24,3.22,8.2l17.71,26.18-12.99,8.23-16.08-26.68c-2.67-1.41-4.93-3.44-6.59-5.91h0Z"
     fill="#faafb2"
     stroke-width="0" />
  <polygon
     points="749.25 192.97 763.88 179.51 792.81 206.44 765.91 224.83 749.25 192.97"
     fill="#dfdfe0"
     stroke-width="0"
     id="polygon7" />
  <path
     d="m32.41,126.63h459.26c17.9,0,32.41,14.51,32.41,32.41h0c0,17.9-14.51,32.41-32.41,32.41H32.41c-17.9,0-32.41-14.51-32.41-32.41h0c0-17.9,14.51-32.41,32.41-32.41Z"
     fill="#6c63ff"
     stroke-width="0"
     id="path8"
     style="fill:#005aa0" />
  <path
     d="m203.31,569.95c0,.66.53,1.19,1.19,1.19h729.29c.66,0,1.19-.53,1.19-1.19s-.53-1.19-1.19-1.19H204.5c-.66,0-1.19.53-1.19,1.19Z"
     fill="#484565"
     stroke-width="0"
     id="path9" />
  <path
     d="m424.62,93.95h95.35c2.28,0,4.12,1.84,4.12,4.11h0c0,2.27-1.84,4.11-4.12,4.11h-95.35c-2.28,0-4.12-1.84-4.12-4.11h0c0-2.27,1.84-4.11,4.12-4.11Z"
     fill="#dfdfe0"
     stroke-width="0"
     id="path10"
     style="fill:#cf6800" />
  <path
     d="m4.12,0h95.35c2.28,0,4.12,1.84,4.12,4.11h0c0,2.27-1.84,4.11-4.12,4.11H4.12C1.84,8.23,0,6.39,0,4.11h0C0,1.84,1.84,0,4.12,0Z"
     fill="#dfdfe0"
     stroke-width="0"
     id="path11"
     style="fill:#cf6800" />
  <path
     d="m4.12,35.91h279.87c2.28,0,4.12,1.84,4.12,4.12h0c0,2.27-1.84,4.11-4.12,4.11H4.12c-2.28,0-4.12-1.84-4.12-4.11h0c0-2.27,1.84-4.12,4.12-4.12Z"
     fill="#dfdfe0"
     stroke-width="0"
     id="path12"
     style="fill:#cf6800" />
  <path
     d="m233.77,260.88c0,21.56,17.48,39.04,39.04,39.04,6.53,0,12.68-1.6,18.08-4.43l37.83,60c2.32,3.67,7.27,4.59,10.75,1.99h0c3.25-2.43,3.95-7.01,1.58-10.31l-41.61-57.75c7.63-7.13,12.41-17.28,12.41-28.54,0-21.56-17.48-39.04-39.04-39.04s-39.04,17.48-39.04,39.04Zm5.36,0c0-18.6,15.08-33.69,33.69-33.69s33.69,15.08,33.69,33.69c0,18.6-15.08,33.69-33.69,33.69-18.6,0-33.69-15.08-33.69-33.69Z"
     fill="#484662"
     stroke-width="0"
     id="path13" />
</svg>
